<?xml version="1.0" encoding="UTF-8" standalone="no"?>
<!-- Created with Inkscape (http://www.inkscape.org/) -->

<svg
   width="54.666416"
   height="98.752174"
   viewBox="0 0 14.463822 26.128179"
   version="1.1"
   id="svg5"
   inkscape:version="1.2.1 (9c6d41e410, 2022-07-14)"
   sodipodi:docname="psi_chip_icon.svg"
   xml:space="preserve"
   inkscape:export-filename="..\..\..\website\website\psi_chip.svg"
   inkscape:export-xdpi="96"
   inkscape:export-ydpi="96"
   xmlns:inkscape="http://www.inkscape.org/namespaces/inkscape"
   xmlns:sodipodi="http://sodipodi.sourceforge.net/DTD/sodipodi-0.dtd"
   xmlns="http://www.w3.org/2000/svg"
   xmlns:svg="http://www.w3.org/2000/svg"><sodipodi:namedview
     id="namedview7"
     pagecolor="#ffffff"
     bordercolor="#000000"
     borderopacity="0.25"
     inkscape:showpageshadow="2"
     inkscape:pageopacity="0.0"
     inkscape:pagecheckerboard="0"
     inkscape:deskcolor="#d1d1d1"
     inkscape:document-units="mm"
     showgrid="false"
     inkscape:zoom="0.2973261"
     inkscape:cx="-238.79505"
     inkscape:cy="87.446073"
     inkscape:window-width="1920"
     inkscape:window-height="1129"
     inkscape:window-x="1272"
     inkscape:window-y="-8"
     inkscape:window-maximized="1"
     inkscape:current-layer="layer1" /><defs
     id="defs2" /><g
     inkscape:label="Layer 1"
     inkscape:groupmode="layer"
     id="layer1"
     transform="translate(-5.9972564,-0.23551573)"><path
       id="path304"
       style="fill:#ffffff;fill-opacity:1;fill-rule:evenodd;stroke:#000000;stroke-width:1.47448;stroke-dasharray:none;stroke-opacity:1"
       d="m 13.228912,25.626454 c 3.587125,1.94e-4 6.495115,-2.907792 6.494925,-6.494917 -4.95e-4,-0.01288 -0.001,-0.02576 -0.0016,-0.03863 h 0.0016 V 7.9849653 H 6.7344963 V 19.092906 h 0.0016 c -5.717e-4,0.01288 -0.0011,0.02575 -0.0016,0.03863 -1.901e-4,3.586927 2.907489,6.494831 6.4944157,6.494918 z"
       sodipodi:nodetypes="cccccccccc"
       inkscape:export-filename="..\..\..\website\website\path304.svg"
       inkscape:export-xdpi="96"
       inkscape:export-ydpi="96" /><path
       id="rect2581"
       style="fill:#ffffff;fill-opacity:1;fill-rule:evenodd;stroke:#000000;stroke-width:1.82839"
       transform="scale(-1)"
       d="m -13.229166,-21.107988 c 1.128618,0 2.037217,0.956191 2.037217,2.801232 v 5.92884 c 0,1.845041 -0.908599,3.3303992 -2.037217,3.3303992 -1.128618,0 -2.037216,-1.4853582 -2.037216,-3.3303992 v -5.92884 c 0,-1.845041 0.908598,-2.801232 2.037216,-2.801232 z"
       sodipodi:nodetypes="sssssss" /><path
       id="path304-0"
       style="fill:#c42123;fill-rule:evenodd;stroke:#000000;stroke-width:1.47448;stroke-dasharray:none;stroke-opacity:1"
       d="M 13.229421,0.97275576 C 9.6422962,0.97256194 6.7343073,3.880547 6.7344963,7.4676718 c 4.95e-4,0.012878 0.00103,0.025755 0.0016,0.03863 h -0.0016 V 11.20591 H 19.723837 V 7.5063038 h -0.0016 c 5.72e-4,-0.012875 0.0011,-0.025752 0.0016,-0.03863 1.89e-4,-3.5869261 -2.90749,-6.49482889 -6.494416,-6.49491604 z"
       sodipodi:nodetypes="sccccccccss" /></g></svg>
